<?xml version="1.0" encoding="utf-8"?>
<svg width="512" height="512" viewBox="0 0 512 512" version="1.1" xmlns="http://www.w3.org/2000/svg">
  <defs/>
  <path d="M 230.564 57.211 C 229.228 57.394 225.219 57.929 221.656 58.399 C 212.953 59.548 193.479 64.005 183.559 67.12 C 132.273 83.224 87.484 122.108 63.276 171.546 C 56.832 184.705 54.055 192.253 50.096 207.37 C 45.195 226.087 43.787 235.744 43.321 253.843 C 42.822 273.183 44.048 285.13 48.457 303.913 C 55.254 332.861 65.147 354.332 82.7 378.224 C 105.073 408.678 138.012 433.77 173.466 447.367 C 186.631 452.415 210.659 458.249 227.729 460.542 C 237.053 461.794 260.667 462.353 264.171 461.405 C 265.729 460.983 271.378 460.073 276.723 459.383 C 282.067 458.692 292.271 456.709 299.397 454.975 C 317.309 450.616 326.671 447.33 340.562 440.526 C 383.292 419.596 418.254 384.064 437.445 342.062 C 443.84 328.065 449.461 309.066 453.317 288.415 C 455.347 277.541 455.812 248.178 454.149 235.793 C 451.616 216.922 445.496 194.453 438.499 178.339 C 416.443 127.543 369.028 84.535 316.403 67.59 C 307.299 64.658 290.743 60.667 279.152 58.61 C 272.926 57.506 236.136 56.446 230.564 57.211 M 231.373 76.622 C 187.863 81.376 150.706 98.153 120.506 126.679 C 88.548 156.867 70.289 192.43 63.99 236.755 C 61.595 253.61 63.144 282.459 67.408 300.418 C 84.409 372.015 144.027 427.111 217.71 439.32 C 253.82 445.303 288.381 441.371 322.309 427.42 C 372.58 406.75 412.967 362.336 428.115 311.066 C 433.72 292.096 435.423 279.722 435.389 258.214 C 435.363 241.552 434.365 231.822 431.356 218.906 C 414.237 145.41 353.652 89.674 278.342 78.138 C 266.344 76.3 241.619 75.502 231.373 76.622 M 177.27 101.538 C 177.037 102.134 169.163 113.957 159.773 127.81 C 150.382 141.663 142.7 153.156 142.7 153.349 C 142.7 153.543 158.327 153.702 177.426 153.702 L 212.152 153.702 L 195.405 178.538 C 186.194 192.199 178.394 203.8 178.072 204.32 C 177.728 204.876 181.106 210.607 186.271 218.229 C 194.816 230.837 240.987 299.767 244.838 305.665 C 245.895 307.284 247.108 308.512 247.533 308.392 C 247.958 308.273 256.277 296.582 266.019 282.412 C 283.307 257.264 283.701 256.6 282.526 254.649 C 280.568 251.399 215.777 155.78 214.801 154.7 C 214.089 153.911 227.996 153.669 283.151 153.508 L 352.395 153.304 L 334.527 126.878 L 316.661 100.452 L 247.178 100.452 C 189.204 100.452 177.624 100.632 177.27 101.538 M 281.177 156.486 C 281.177 157.229 316.257 208.541 316.737 208.499 C 316.998 208.477 319.377 205.168 322.023 201.148 C 324.669 197.127 332.261 185.833 338.893 176.05 C 345.525 166.266 351.144 157.772 351.378 157.174 C 351.733 156.263 346.045 156.086 316.49 156.086 C 297.067 156.086 281.177 156.265 281.177 156.486 M 266.704 285.268 C 256.449 300.518 249.581 311.477 249.849 312.162 C 250.098 312.798 257.98 324.614 267.365 338.42 L 284.429 363.521 L 250.822 363.521 L 217.216 363.521 L 199.834 337.691 C 190.274 323.484 182.163 311.864 181.809 311.867 C 180.693 311.878 147.213 362.251 147.213 363.918 C 147.213 364.792 154.987 377.041 164.488 391.139 L 181.764 416.77 L 251.223 416.77 L 320.681 416.77 L 321.19 414.783 C 321.469 413.691 322.055 412.797 322.492 412.797 C 322.929 412.797 323.286 412.424 323.286 411.968 C 323.286 411.511 327.203 405.342 331.992 398.258 C 336.78 391.173 340.845 385.033 341.024 384.612 C 341.204 384.191 343.118 381.418 345.276 378.45 C 347.434 375.481 349.2 372.726 349.2 372.327 C 349.2 371.928 349.473 371.482 349.807 371.336 C 350.141 371.19 351.53 369.459 352.893 367.487 L 355.371 363.903 L 349.818 355.565 C 342.859 345.116 326.591 320.868 303.3 286.229 C 293.38 271.477 284.982 259.434 284.638 259.468 C 284.293 259.502 276.223 271.112 266.704 285.268" stroke="none" fill="#888888" fill-rule="evenodd" style=""/>
</svg>
